<svg id="Layer_1" data-name="Layer 1" xmlns="http://www.w3.org/2000/svg" viewBox="0 0 30 26"><defs><style>.cls-1{fill:#72292e;}.cls-2{fill:#98212c;}.cls-3{fill:#ba2a30;}.cls-4{fill:#c21033;}</style></defs><title>Artboard 1_Large</title><polygon class="cls-1" points="29.66 17.4 17.35 7.42 15 8.8 29.66 17.4"/><path class="cls-2" d="M17.35,7.42l12.31,10h0A2.45,2.45,0,0,0,30,16.24V0Z"/><path class="cls-3" d="M16.62,9.75,15,8.8V26a2.32,2.32,0,0,0,1.16-.28l12.68-7.44a2.41,2.41,0,0,0,.82-.88Z"/><path class="cls-4" d="M0,0V16.24a2.61,2.61,0,0,0,1.16,2l12.68,7.44A2.32,2.32,0,0,0,15,26V8.8Z"/></svg>